PathFileType  4	(X/Y/Z) C:\Users\antoi\Documents\MyRepositories\mobilecap\ResultsAnalysis
DataRate	CameraRate	NumFrames	NumMarkers	Units	OrigDataRate	OrigDataStartFrame	OrigNumFrames
100.0	100.0	4	51	mm	100.0	1061	1414
Frame#	Time	r_knee			r_shank_antsup			r_ankle			r_calc			r_5meta			r_toe			L_knee			L_shank_antsup			L_ankle			L_calc			L_5meta			L_toe			r_sh2			r_sh3			r_sh4			L_sh2			L_sh3			r_thigh1			r_thigh2			r_thigh3			r_thigh4			r_thigh5			L_thigh1			L_thigh2			L_thigh3			L_thigh4			r.ASIS			r.PSIS			L.ASIS			L.PSIS			C7			R_Shoulder			L_Shoulder			R_Sternum			L_Sternum			R_humerus			R_elbow_med			R_elbow_lat			R_forearm			R_wrist_radius			R_wrist_ulna			L_humerus			L_elbow_med			L_elbow_lat			L_forearm			L_wrist_radius			L_wrist_ulna			R_HJC			L_HJC			R_HJC_reg			L_HJC_reg			
		X1	Y1	Z1	X2	Y2	Z2	X3	Y3	Z3	X4	Y4	Z4	X5	Y5	Z5	X6	Y6	Z6	X7	Y7	Z7	X8	Y8	Z8	X9	Y9	Z9	X10	Y10	Z10	X11	Y11	Z11	X12	Y12	Z12	X13	Y13	Z13	X14	Y14	Z14	X15	Y15	Z15	X16	Y16	Z16	X17	Y17	Z17	X18	Y18	Z18	X19	Y19	Z19	X20	Y20	Z20	X21	Y21	Z21	X22	Y22	Z22	X23	Y23	Z23	X24	Y24	Z24	X25	Y25	Z25	X26	Y26	Z26	X27	Y27	Z27	X28	Y28	Z28	X29	Y29	Z29	X30	Y30	Z30	X31	Y31	Z31	X32	Y32	Z32	X33	Y33	Z33	X34	Y34	Z34	X35	Y35	Z35	X36	Y36	Z36	X37	Y37	Z37	X38	Y38	Z38	X39	Y39	Z39	X40	Y40	Z40	X41	Y41	Z41	X42	Y42	Z42	X43	Y43	Z43	X44	Y44	Z44	X45	Y45	Z45	X46	Y46	Z46	X47	Y47	Z47	X48	Y48	Z48	X49	Y49	Z49	X50	Y50	Z50	X51	Y51	Z51	

1061	10.60000000	-207.05716	540.09880	-406.97210	-177.43617	413.24188	-414.35153	-298.78541	95.66000	-446.26165	-353.16745	65.21821	-509.00733	-183.26289	36.36541	-370.72637	-129.59510	59.07852	-433.25968	-231.27860	543.87066	-869.64785	-185.79078	438.23959	-881.31864	-290.32915	98.88651	-903.68116	-346.72178	68.88758	-850.46761	-154.66235	34.55361	-955.92698	-115.71585	58.81020	-890.72317	-185.61468	300.15406	-439.70053	-246.69656	408.19675	-380.45623	-249.75811	291.48113	-385.75804	-273.42759	449.27309	-899.32594	-268.49768	330.12945	-930.85465	-177.47284	794.48291	-417.66029	-147.35437	684.66145	-427.13517	-174.23314	649.73638	-375.85684	-266.63640	761.38860	-354.76200	-229.73105	649.18664	-368.87238	-331.40511	771.41375	-850.34875	-283.25241	643.94245	-870.64561	-226.28070	808.21315	-830.23569	-179.64718	681.03451	-856.71159	-244.41783	1010.92178	-453.24757	-432.05648	1086.56322	-547.08798	-236.73911	995.98152	-716.18568	-428.17178	1083.29310	-646.06016	-219.89205	1546.98971	-568.82427	-153.55944	1458.87557	-387.03433	-137.61469	1482.37999	-734.92697	-103.15368	1431.29708	-544.65702	-104.39563	1431.03328	-587.65867	-103.87858	1320.09897	-313.50150	-89.87628	1075.58705	-339.57159	-60.12932	1127.51510	-260.66387	54.64288	1206.77797	-355.45033	141.94228	1244.22731	-421.71070	171.08652	1214.85534	-413.80804	-100.28564	1332.57883	-820.04566	-130.92904	1101.23315	-815.62841	-80.50913	1141.12102	-873.58030	12.82788	1211.30992	-756.95426	107.01871	1243.28343	-700.59496	134.98750	1211.28817	-722.49656	-341.58766	950.54042	-488.19289	-334.48741	928.08598	-700.28124	-333.46945	945.97264	-492.09288	-326.65226	940.23464	-665.75731	
1062	10.61000000	-208.80112	540.67631	-407.43356	-178.76677	413.76487	-414.67661	-298.88284	95.59199	-446.28145	-353.17487	65.17273	-508.95695	-183.25870	36.34916	-370.68999	-129.63509	59.02905	-433.23371	-232.40208	544.14917	-868.90817	-186.96719	438.51960	-880.60055	-290.35750	98.89546	-903.65682	-346.75665	68.84231	-850.50763	-154.66602	34.51623	-955.93531	-115.71724	58.78636	-890.75026	-186.64710	300.73981	-439.68618	-248.38805	408.90436	-380.40690	-250.71894	291.79687	-385.86462	-274.61035	449.42959	-898.66247	-269.38438	330.49090	-930.68894	-177.02295	794.76066	-417.70456	-147.85722	684.65917	-427.07366	-175.25241	649.97360	-375.91221	-266.67909	762.29366	-355.23712	-230.77200	649.82304	-369.41155	-330.70224	772.50155	-849.96359	-283.53147	644.73004	-870.08920	-225.24574	808.61614	-830.19954	-179.67517	680.95062	-856.33342	-242.82797	1012.88573	-453.23186	-430.80085	1087.60240	-547.35001	-234.36875	997.86080	-717.44111	-426.73679	1084.31979	-646.47557	-221.54932	1549.42518	-568.72000	-155.18086	1461.49504	-386.89512	-138.79328	1485.13223	-734.64353	-104.30352	1434.34040	-544.38613	-105.48990	1434.08755	-587.41438	-105.30216	1322.68923	-313.03306	-91.50291	1078.95191	-339.15621	-61.27216	1130.24073	-260.11726	53.44759	1209.38696	-355.13203	140.51531	1247.01545	-421.07830	169.94209	1217.42551	-413.54046	-101.43905	1335.08365	-820.10986	-132.34479	1103.79718	-815.53170	-81.96535	1143.59759	-873.33792	11.51482	1213.71956	-756.79514	105.83091	1245.64428	-700.64761	133.61036	1213.55292	-722.57676	-339.49384	951.93057	-488.72658	-332.14427	929.62905	-700.82263	-331.55755	947.12651	-492.41355	-324.40278	941.34789	-666.92082	
1063	10.62000000	-210.46785	541.21641	-407.84399	-180.05229	414.36709	-414.97469	-298.98552	95.52238	-446.33360	-353.17845	65.17072	-508.90822	-183.26293	36.31951	-370.65276	-129.63714	59.02280	-433.22325	-233.58828	544.41536	-868.21407	-188.14013	438.91277	-879.94705	-290.32045	98.87207	-903.54917	-346.84727	68.77565	-850.50120	-154.66701	34.50626	-955.93930	-115.71561	58.79011	-890.76234	-187.48496	301.13497	-439.86735	-249.88553	409.18119	-380.68809	-251.25657	291.65048	-386.50950	-275.73278	449.59953	-898.06461	-270.21665	330.84583	-930.41573	-176.52721	794.96774	-417.96683	-148.38294	684.61491	-427.15218	-176.02891	650.31614	-375.57623	-266.72295	763.29154	-355.55706	-231.68918	650.52918	-369.84641	-329.99539	773.52816	-849.48330	-283.91280	645.42289	-869.29638	-224.20575	808.84833	-830.14458	-179.76879	680.82702	-855.80604	-241.21225	1014.78066	-453.15064	-429.49878	1088.48244	-547.72812	-232.16991	999.57964	-718.00044	-425.39091	1085.21652	-646.82915	-223.17453	1551.75329	-568.61090	-156.78337	1464.09839	-386.70377	-139.97722	1487.78549	-734.47885	-105.46772	1437.26129	-544.06561	-106.61418	1436.99756	-587.15295	-106.74469	1325.11578	-312.68730	-93.10853	1082.24153	-338.71516	-62.36162	1132.88383	-259.55164	52.31427	1211.88332	-354.79279	139.30931	1249.65311	-420.53716	168.86434	1219.76989	-413.27034	-102.64180	1337.56478	-820.25799	-133.68753	1106.31384	-815.45158	-83.32186	1146.02259	-873.24496	10.34519	1216.03285	-756.60320	104.62265	1247.83337	-700.47187	132.31028	1215.70959	-722.60032	-337.49822	953.28662	-488.99996	-329.80497	930.94574	-701.07948	-329.49735	948.29217	-492.45392	-322.24565	942.52670	-667.39877	
1064	10.63000000	-212.07948	541.67101	-408.31976	-181.35939	414.95555	-415.26959	-299.10042	95.47245	-446.36568	-353.20402	65.18276	-508.86946	-183.27857	36.27478	-370.62235	-129.61294	59.03979	-433.21375	-234.73259	544.62642	-867.54413	-189.32301	439.33322	-879.32325	-290.30812	98.87232	-903.42790	-346.92635	68.72228	-850.46137	-154.66616	34.51941	-955.93969	-115.69327	58.82195	-890.79149	-188.25051	301.49492	-440.12418	-250.97845	409.11234	-381.33658	-251.86960	291.78130	-386.97527	-276.89701	449.76926	-897.55705	-270.95027	331.01624	-929.72030	-175.96234	795.11770	-418.23482	-148.93266	684.52905	-427.52627	-176.85196	650.48920	-375.78853	-266.70852	764.26948	-355.73750	-232.47793	651.25034	-370.19507	-329.28388	774.63464	-849.03284	-284.33293	646.12763	-868.52028	-223.21688	809.08814	-829.89061	-179.88809	680.76977	-855.23156	-239.64635	1016.57483	-453.05535	-428.17464	1089.35965	-548.19579	-230.31500	1001.24639	-717.65923	-424.05186	1086.05032	-647.08009	-224.80031	1553.97115	-568.51620	-158.37472	1466.58743	-386.46732	-141.11636	1490.36988	-734.57880	-106.65036	1440.04729	-543.71767	-107.73132	1439.73264	-587.01607	-108.14452	1327.47025	-312.45420	-94.43464	1084.98482	-338.16338	-63.48748	1135.39498	-259.02203	51.19164	1214.26532	-354.46356	138.25975	1252.04484	-420.14194	167.79903	1222.01617	-412.89226	-103.86411	1340.03658	-820.42649	-134.97214	1108.74995	-815.33838	-84.57484	1148.42378	-873.32694	9.22545	1218.23133	-756.48133	103.41623	1249.87110	-700.18893	131.15029	1217.74290	-722.43680	-335.71688	954.66355	-488.98029	-327.57605	932.13490	-701.02340	-327.52240	949.75060	-492.28018	-320.23460	943.90060	-667.06997	
